{"asset":{"version":"2.0","generator":"Blockbench 5.0.7 glTF exporter"},"scenes":[{"nodes":[3,5,14],"name":"blockbench_export"}],"scene":0,"nodes":[{"translation":[0,0.7875000000000001,-0.6375000000000004],"name":"Head","mesh":0},{"translation":[0,0.7250000000000001,-0.8999999999999985],"name":"Nose","mesh":1},{"name":"Nose","children":[1]},{"translation":[0,-0.40312499999999996,0],"name":"Head","children":[0,2]},{"translation":[0,0.6875,0],"name":"Body","mesh":2},{"translation":[0,-0.40312499999999996,0],"name":"Body","children":[4]},{"translation":[0.20625,0.31249999999999994,-0.3874999999999998],"name":"RightFrontLeg","mesh":3},{"name":"RightFrontLeg","children":[6]},{"translation":[0.20625,0.31249999999999994,0.3875],"name":"RightRearLeg","mesh":4},{"name":"RightRearLeg","children":[8]},{"translation":[-0.20625,0.31249999999999994,-0.3875],"name":"LeftFrontLeg","mesh":5},{"name":"LeftFrontLeg","children":[10]},{"translation":[-0.20625,0.31249999999999994,0.3875],"name":"LeftRearLeg","mesh":6},{"name":"LeftRearLeg","children":[12]},{"translation":[0,-0.40312499999999996,0],"name":"Legs","children":[7,9,11,13]}],"bufferViews":[{"buffer":0,"byteOffset":0,"byteLength":288,"target":34962,"byteStride":12},{"buffer":0,"byteOffset":288,"byteLength":288,"target":34962,"byteStride":12},{"buffer":0,"byteOffset":576,"byteLength":192,"target":34962,"byteStride":8},{"buffer":0,"byteOffset":768,"byteLength":72,"target":34963},{"buffer":0,"byteOffset":840,"byteLength":288,"target":34962,"byteStride":12},{"buffer":0,"byteOffset":1128,"byteLength":288,"target":34962,"byteStride":12},{"buffer":0,"byteOffset":1416,"byteLength":192,"target":34962,"byteStride":8},{"buffer":0,"byteOffset":1608,"byteLength":72,"target":34963},{"buffer":0,"byteOffset":1680,"byteLength":288,"target":34962,"byteStride":12},{"buffer":0,"byteOffset":1968,"byteLength":288,"target":34962,"byteStride":12},{"buffer":0,"byteOffset":2256,"byteLength":192,"target":34962,"byteStride":8},{"buffer":0,"byteOffset":2448,"byteLength":72,"target":34963},{"buffer":0,"byteOffset":2520,"byteLength":288,"target":34962,"byteStride":12},{"buffer":0,"byteOffset":2808,"byteLength":288,"target":34962,"byteStride":12},{"buffer":0,"byteOffset":3096,"byteLength":192,"target":34962,"byteStride":8},{"buffer":0,"byteOffset":3288,"byteLength":72,"target":34963},{"buffer":0,"byteOffset":3360,"byteLength":288,"target":34962,"byteStride":12},{"buffer":0,"byteOffset":3648,"byteLength":288,"target":34962,"byteStride":12},{"buffer":0,"byteOffset":3936,"byteLength":192,"target":34962,"byteStride":8},{"buffer":0,"byteOffset":4128,"byteLength":72,"target":34963},{"buffer":0,"byteOffset":4200,"byteLength":288,"target":34962,"byteStride":12},{"buffer":0,"byteOffset":4488,"byteLength":288,"target":34962,"byteStride":12},{"buffer":0,"byteOffset":4776,"byteLength":192,"target":34962,"byteStride":8},{"buffer":0,"byteOffset":4968,"byteLength":72,"target":34963},{"buffer":0,"byteOffset":5040,"byteLength":288,"target":34962,"byteStride":12},{"buffer":0,"byteOffset":5328,"byteLength":288,"target":34962,"byteStride":12},{"buffer":0,"byteOffset":5616,"byteLength":192,"target":34962,"byteStride":8},{"buffer":0,"byteOffset":5808,"byteLength":72,"target":34963},{"buffer":0,"byteOffset":5880,"byteLength":32},{"buffer":0,"byteOffset":5912,"byteLength":128},{"buffer":0,"byteOffset":6040,"byteLength":32},{"buffer":0,"byteOffset":6072,"byteLength":128},{"buffer":0,"byteOffset":6200,"byteLength":32},{"buffer":0,"byteOffset":6232,"byteLength":128},{"buffer":0,"byteOffset":6360,"byteLength":32},{"buffer":0,"byteOffset":6392,"byteLength":128}],"buffers":[{"byteLength":6520,"uri":"data:application/octet-stream;base64,"}],"accessors":[{"bufferView":0,"componentType":5126,"count":24,"max":[0.25,0.48750001192092896,0.25],"min":[-0.25,0.012500000186264515,-0.25],"type":"VEC3"},{"bufferView":1,"componentType":5126,"count":24,"max":[1,1,1],"min":[-1,-1,-1],"type":"VEC3"},{"bufferView":2,"componentType":5126,"count":24,"max":[0.5,0.25],"min":[0,0],"type":"VEC2"},{"bufferView":3,"componentType":5123,"count":36,"max":[23],"min":[0],"type":"SCALAR"},{"bufferView":4,"componentType":5126,"count":24,"max":[0.0625,0.29374998807907104,0.03125],"min":[-0.0625,0.20624999701976776,-0.03125],"type":"VEC3"},{"bufferView":5,"componentType":5126,"count":24,"max":[1,1,1],"min":[-1,-1,-1],"type":"VEC3"},{"bufferView":6,"componentType":5126,"count":24,"max":[0.390625,0.3125],"min":[0.25,0.25],"type":"VEC2"},{"bufferView":7,"componentType":5123,"count":36,"max":[23],"min":[0],"type":"SCALAR"},{"bufferView":8,"componentType":5126,"count":24,"max":[0.3125,0.5218750238418579,0.5],"min":[-0.3125,-0.02187499962747097,-0.5],"type":"VEC3"},{"bufferView":9,"componentType":5126,"count":24,"max":[1,1,1],"min":[-1,-1,-1],"type":"VEC3"},{"bufferView":10,"componentType":5126,"count":24,"max":[1,0.875],"min":[0.4375,0.25],"type":"VEC2"},{"bufferView":11,"componentType":5123,"count":36,"max":[23],"min":[0],"type":"SCALAR"},{"bufferView":12,"componentType":5126,"count":24,"max":[0.10000000149011612,0.4124999940395355,0.10625000298023224],"min":[-0.10000000149011612,0.08749999850988388,-0.10625000298023224],"type":"VEC3"},{"bufferView":13,"componentType":5126,"count":24,"max":[1,1,1],"min":[-1,-1,-1],"type":"VEC3"},{"bufferView":14,"componentType":5126,"count":24,"max":[0.1875,0.40625],"min":[0,0.25],"type":"VEC2"},{"bufferView":15,"componentType":5123,"count":36,"max":[23],"min":[0],"type":"SCALAR"},{"bufferView":16,"componentType":5126,"count":24,"max":[0.10000000149011612,0.4124999940395355,0.10625000298023224],"min":[-0.10000000149011612,0.08749999850988388,-0.10625000298023224],"type":"VEC3"},{"bufferView":17,"componentType":5126,"count":24,"max":[1,1,1],"min":[-1,-1,-1],"type":"VEC3"},{"bufferView":18,"componentType":5126,"count":24,"max":[0.1875,0.40625],"min":[0,0.25],"type":"VEC2"},{"bufferView":19,"componentType":5123,"count":36,"max":[23],"min":[0],"type":"SCALAR"},{"bufferView":20,"componentType":5126,"count":24,"max":[0.10000000149011612,0.4124999940395355,0.10625000298023224],"min":[-0.10000000149011612,0.08749999850988388,-0.10625000298023224],"type":"VEC3"},{"bufferView":21,"componentType":5126,"count":24,"max":[1,1,1],"min":[-1,-1,-1],"type":"VEC3"},{"bufferView":22,"componentType":5126,"count":24,"max":[0.1875,0.40625],"min":[0,0.25],"type":"VEC2"},{"bufferView":23,"componentType":5123,"count":36,"max":[23],"min":[0],"type":"SCALAR"},{"bufferView":24,"componentType":5126,"count":24,"max":[0.10000000149011612,0.4124999940395355,0.10625000298023224],"min":[-0.10000000149011612,0.08749999850988388,-0.10625000298023224],"type":"VEC3"},{"bufferView":25,"componentType":5126,"count":24,"max":[1,1,1],"min":[-1,-1,-1],"type":"VEC3"},{"bufferView":26,"componentType":5126,"count":24,"max":[0.1875,0.40625],"min":[0,0.25],"type":"VEC2"},{"bufferView":27,"componentType":5123,"count":36,"max":[23],"min":[0],"type":"SCALAR"},{"bufferView":28,"componentType":5126,"count":8,"max":[0.6666666865348816],"min":[0],"type":"SCALAR"},{"bufferView":29,"componentType":5126,"count":8,"max":[0,0,0,1],"min":[-0.06975647062063217,0,0,0.9975640773773193],"type":"VEC4"},{"bufferView":30,"componentType":5126,"count":8,"max":[0.6666666865348816],"min":[0],"type":"SCALAR"},{"bufferView":31,"componentType":5126,"count":8,"max":[0.06975647062063217,0,0,1],"min":[0,0,0,0.9975640773773193],"type":"VEC4"},{"bufferView":32,"componentType":5126,"count":8,"max":[0.6666666865348816],"min":[0],"type":"SCALAR"},{"bufferView":33,"componentType":5126,"count":8,"max":[0.06975647062063217,0,0,1],"min":[0,0,0,0.9975640773773193],"type":"VEC4"},{"bufferView":34,"componentType":5126,"count":8,"max":[0.6666666865348816],"min":[0],"type":"SCALAR"},{"bufferView":35,"componentType":5126,"count":8,"max":[0,0,0,1],"min":[-0.06975647062063217,0,0,0.9975640773773193],"type":"VEC4"}],"materials":[{"pbrMetallicRoughness":{"metallicFactor":0,"roughnessFactor":1},"alphaMode":"MASK","alphaCutoff":0.05,"doubleSided":true},{"pbrMetallicRoughness":{"metallicFactor":0,"roughnessFactor":1},"alphaMode":"MASK","alphaCutoff":0.05,"doubleSided":true},{"pbrMetallicRoughness":{"metallicFactor":0,"roughnessFactor":1},"alphaMode":"MASK","alphaCutoff":0.05,"doubleSided":true}],"meshes":[{"primitives":[{"mode":4,"attributes":{"POSITION":0,"NORMAL":1,"TEXCOORD_0":2},"indices":3,"material":0}]},{"primitives":[{"mode":4,"attributes":{"POSITION":4,"NORMAL":5,"TEXCOORD_0":6},"indices":7,"material":1}]},{"primitives":[{"mode":4,"attributes":{"POSITION":8,"NORMAL":9,"TEXCOORD_0":10},"indices":11,"material":2}]},{"primitives":[{"mode":4,"attributes":{"POSITION":12,"NORMAL":13,"TEXCOORD_0":14},"indices":15,"material":0}]},{"primitives":[{"mode":4,"attributes":{"POSITION":16,"NORMAL":17,"TEXCOORD_0":18},"indices":19,"material":0}]},{"primitives":[{"mode":4,"attributes":{"POSITION":20,"NORMAL":21,"TEXCOORD_0":22},"indices":23,"material":0}]},{"primitives":[{"mode":4,"attributes":{"POSITION":24,"NORMAL":25,"TEXCOORD_0":26},"indices":27,"material":0}]}],"animations":[{"name":"Walking","samplers":[{"input":28,"output":29,"interpolation":"LINEAR"},{"input":30,"output":31,"interpolation":"LINEAR"},{"input":32,"output":33,"interpolation":"LINEAR"},{"input":34,"output":35,"interpolation":"LINEAR"}],"channels":[{"sampler":0,"target":{"node":7,"path":"rotation"}},{"sampler":1,"target":{"node":9,"path":"rotation"}},{"sampler":2,"target":{"node":11,"path":"rotation"}},{"sampler":3,"target":{"node":13,"path":"rotation"}}]}]}